<svg width="15" height="16" viewBox="0 0 15 16" fill="none" xmlns="http://www.w3.org/2000/svg">
<path fill-rule="evenodd" clip-rule="evenodd" d="M6.87635 1.13024C6.9566 0.94968 7.13566 0.833313 7.33325 0.833313C7.99629 0.833313 8.63218 1.09671 9.10102 1.56555C9.56986 2.03439 9.83325 2.67027 9.83325 3.33331V5.49998H13.104C13.3687 5.49742 13.6308 5.55222 13.8724 5.66063C14.1148 5.76945 14.3307 5.92968 14.5051 6.13023C14.6795 6.33078 14.8082 6.56685 14.8823 6.82208C14.9564 7.0773 14.9741 7.34559 14.9343 7.60835L14.0143 13.6083C14.0143 13.6083 14.0143 13.6082 14.0143 13.6083C13.948 14.0454 13.7259 14.4439 13.389 14.7303C13.0529 15.016 12.625 15.1709 12.184 15.1666H2.66659C2.18035 15.1666 1.71404 14.9735 1.37022 14.6297C1.02641 14.2859 0.833252 13.8195 0.833252 13.3333V8.66665C0.833252 8.18042 1.02641 7.7141 1.37022 7.37028C1.71404 7.02647 2.18035 6.83331 2.66659 6.83331H4.34165L6.87635 1.13024ZM5.16659 7.43942L7.64375 1.8658C7.92577 1.92547 8.18696 2.0657 8.39391 2.27265C8.67522 2.55396 8.83325 2.93549 8.83325 3.33331V5.99998C8.83325 6.27612 9.05711 6.49998 9.33325 6.49998H13.1066L13.1122 6.49995C13.233 6.49858 13.3527 6.52349 13.4629 6.57296C13.5731 6.62242 13.6713 6.69525 13.7505 6.78641C13.8298 6.87757 13.8883 6.98487 13.922 7.10089C13.9556 7.21682 13.9637 7.33869 13.9456 7.45805C13.9456 7.45813 13.9456 7.45797 13.9456 7.45805L13.0256 13.4583C12.9954 13.6571 12.8945 13.8382 12.7414 13.9683C12.5882 14.0985 12.3932 14.169 12.1922 14.1667L5.16659 14.1666V7.43942ZM4.16659 14.1666V7.83331H2.66659C2.44557 7.83331 2.23361 7.92111 2.07733 8.07739C1.92105 8.23367 1.83325 8.44563 1.83325 8.66665V13.3333C1.83325 13.5543 1.92105 13.7663 2.07733 13.9226C2.23361 14.0788 2.44557 14.1666 2.66659 14.1666H4.16659Z" fill="#1877F2"/>
</svg>
