<svg width="23" height="22" viewBox="0 0 23 22" fill="none" xmlns="http://www.w3.org/2000/svg">
<path fill-rule="evenodd" clip-rule="evenodd" d="M11.5 3.4375C7.32335 3.4375 3.9375 6.82335 3.9375 11C3.9375 11.9735 4.12108 12.9024 4.45488 13.7552C4.62778 14.197 4.713 14.7026 4.62597 15.2194L4.08837 18.4116L7.28062 17.874C7.79741 17.787 8.30305 17.8722 8.74479 18.0451C9.59762 18.3789 10.5265 18.5625 11.5 18.5625C15.6767 18.5625 19.0625 15.1767 19.0625 11C19.0625 6.82335 15.6767 3.4375 11.5 3.4375ZM2.5625 11C2.5625 6.06395 6.56395 2.0625 11.5 2.0625C16.436 2.0625 20.4375 6.06395 20.4375 11C20.4375 15.936 16.436 19.9375 11.5 19.9375C10.3523 19.9375 9.25357 19.7208 8.24363 19.3255C7.98528 19.2244 7.73355 19.1921 7.50897 19.2299L3.9992 19.821C3.22228 19.9518 2.54815 19.2777 2.67899 18.5008L3.27006 14.991C3.30788 14.7664 3.27559 14.5147 3.17447 14.2564C2.77917 13.2464 2.5625 12.1477 2.5625 11Z" fill="#542F1A"/>
<path fill-rule="evenodd" clip-rule="evenodd" d="M7.14575 9.1665C7.14575 8.78681 7.45356 8.479 7.83325 8.479H15.1666C15.5463 8.479 15.8541 8.78681 15.8541 9.1665C15.8541 9.5462 15.5463 9.854 15.1666 9.854H7.83325C7.45356 9.854 7.14575 9.5462 7.14575 9.1665ZM7.14575 12.8332C7.14575 12.4535 7.45356 12.1457 7.83325 12.1457H11.4999C11.8796 12.1457 12.1874 12.4535 12.1874 12.8332C12.1874 13.2129 11.8796 13.5207 11.4999 13.5207H7.83325C7.45356 13.5207 7.14575 13.2129 7.14575 12.8332Z" fill="#542F1A"/>
</svg>
